<?xml version="1.0" encoding="UTF-8" standalone="no"?>
<!-- Created with Inkscape (http://www.inkscape.org/) -->

<svg
   version="1.1"
   id="svg1"
   width="699.6994"
   height="778.87921"
   viewBox="0 0 699.6994 778.87921"
   sodipodi:docname="logo.svg"
   inkscape:version="1.4 (e7c3feb1, 2024-10-09)"
   xmlns:inkscape="http://www.inkscape.org/namespaces/inkscape"
   xmlns:sodipodi="http://sodipodi.sourceforge.net/DTD/sodipodi-0.dtd"
   xmlns="http://www.w3.org/2000/svg"
   xmlns:svg="http://www.w3.org/2000/svg">
  <defs
     id="defs1" />
  <sodipodi:namedview
     id="namedview1"
     pagecolor="#ffffff"
     bordercolor="#000000"
     borderopacity="0.25"
     inkscape:showpageshadow="2"
     inkscape:pageopacity="0.0"
     inkscape:pagecheckerboard="0"
     inkscape:deskcolor="#d1d1d1"
     showgrid="false"
     inkscape:zoom="0.41503906"
     inkscape:cx="298.76706"
     inkscape:cy="383.09647"
     inkscape:window-width="1920"
     inkscape:window-height="1027"
     inkscape:window-x="1920"
     inkscape:window-y="25"
     inkscape:window-maximized="1"
     inkscape:current-layer="svg1" />
  <path
     style="display:inline;fill:#4d2a54;stroke:none;fill-opacity:1"
     d="m 345.33786,0.22112937 c 27.9501,-2.19665997 51.8047,12.37987963 75,25.63817963 l 94,53.71448 c 36.7289,20.982421 73.3701,42.095331 110,63.246211 23.991,13.85291 47.6652,25.00318 62.0549,50.03931 13.7602,23.9408 12.9451,49.34814 12.9451,76 v 92 135 c 0,25.9363 2.8556,54.5315 -7.4843,79 -14.4857,34.2795 -45.0367,49.2419 -75.5157,66.8668 -55.0826,31.8522 -110.7531,62.7086 -166,94.2765 -30.1113,17.2055 -60.3934,40.2229 -96,42.6858 -29.09546,2.0125 -51.73022,-12.2495 -76,-26.1146 -30.30939,-17.3155 -60.61725,-34.6361 -91,-51.8184 -35.76434,-20.2257 -71.34326,-40.7645 -106.999997,-61.1783 -26.77612,-15.3296 -52.68988,-27.7786 -68.52295,-55.7178 -12.29943966,-21.7037 -11.47704966,-45.9183 -11.47704966,-70 v -96 -135 c 0,-26.87756 -2.83948004,-54.66516 7.94488996,-80 C 22.913483,168.48858 55.809483,153.87909 86.337863,136.43109 141.68564,104.79803 196.76071,72.637999 252.33786,41.413139 c 29.70691,-16.69018 58.08588,-38.4479996 93,-41.19200963"
     id="path7138"
     inkscape:label="path7138" />
  <path
     style="fill:#ffffff;fill-opacity:0.877637;stroke:none"
     d="m 463.33786,298.85931 h -143 -38 l -15.28119,-1.45508 -5.64007,-11.54492 -10.07874,-28 c 8.38885,0 21.11023,2.37085 28.8382,-1.2063 6.89013,-3.18933 7.75329,-13.40149 0.98095,-17.23096 -5.5888,-3.16027 -14.62372,-1.56274 -20.81915,-1.56274 h -48 c -6.46216,0 -16.59662,-1.89331 -20.88556,4.24695 -3.77508,5.40466 -1.17169,12.79419 4.93738,14.91479 9.27801,3.22058 23.07031,-3.14441 31.41217,2.29334 4.40875,2.8739 5.89606,10.8678 7.51575,15.54492 4.39135,12.68091 8.79455,25.35913 13.2987,38 2.03235,5.70374 5.19245,12.09998 2.3039,18 -6.30921,12.88684 -16.20557,25.16016 -24.3122,37 -2.67309,3.9041 -5.862,11.2313 -10.29712,13.3447 -4.51361,2.1508 -13.52368,-4.201 -17.97302,-5.5714 -13.14392,-4.0481 -27.28101,-5.7316 -41,-4.5206 -62.679567,5.5326 -111.052367,67.3672 -93.813167,129.7473 9.39453,33.9943 32.12158,61.42 65.813167,73.5054 59.96155,21.5084 132.8512,-18.0721 140,-83.5054 h 35 c 4.82581,0 11.32239,-1.0544 15.67548,1.4551 9.99282,5.7611 16.77962,24.1776 23.32452,33.5449 -6.8837,0.1521 -20.45197,7.4701 -9.5371,14.4373 7.769,4.9592 26.5167,1.7751 35.537,1.5378 3.5776,-0.094 7.6091,-0.3889 9.9802,-3.4705 3.0164,-3.92 1.0593,-9.2011 -3.1609,-11.1906 -4.3901,-2.0696 -9.6907,-0.01 -13.9042,-2.2295 -8.276,-4.3659 -15.1216,-21.1892 -19.8024,-29.0845 -1.7933,-3.0249 -4.97,-6.9917 -3.9204,-10.7511 1.3247,-4.7447 7.4628,-8.912 10.8079,-12.2504 9.5362,-9.5172 19.2937,-18.7343 28.9999,-28.0647 21.8773,-21.03 43.5372,-42.4965 65,-63.9343 12.0331,-12.019 23.5519,-25.56481 37,-35.9995 l 12,36 c -60.0386,20.5485 -75.0212,100.1858 -45.4714,150 23.7513,40.0394 76.2617,58.8643 120.4714,44.9163 42.7831,-13.4978 74.9243,-55.4567 73.9148,-100.9163 -1.4166,-63.7952 -64.4362,-120.38611 -128.9148,-101 l -41,-116 16,-1.2e-4 c 8.3033,-0.005 28.2567,-7.52515 14.5397,-17.88709 -3.6968,-2.7926 -9.1891,-2.11035 -13.5397,-2.11267 -9.6721,-0.005 -36.2968,-5.26257 -40.9706,6.09998 -2.3426,5.69531 1.359,12.59302 3.2492,17.8999 4.3647,12.25452 8.9682,24.54419 12.7214,37"
     id="path7139" />
  <path
     style="fill:#4d2a54;stroke:none;fill-opacity:1"
     d="m 998,1056 -3,35 h -1 l -12,-35 z"
     id="path7145"
     transform="translate(-674.66214,-640.14069)" />
  <path
     style="fill:#4d2a54;stroke:none;fill-opacity:1"
     d="m 925,1110 -66,-1 37,-56 c 18.11597,10.5488 27.55591,37.073 29,57"
     id="path7144"
     transform="translate(-674.66214,-640.14069)" />
  <path
     style="fill:#4d2a54;stroke:none;fill-opacity:1"
     d="m 1174,1040 c 8.2666,25.0682 16.9856,50.0734 25.6823,74.9999 2.8962,8.3014 11.3521,18.6817 19.691,8.7074 5.8348,-6.9792 -1.048,-18.5878 -3.6812,-25.7073 -7.8252,-21.1571 -16.7544,-42.9623 -21.6921,-65 42.47,-10.74 87.7633,19.4873 98.4531,61 7.7908,30.2544 -1.7992,62.5631 -24.457,83.8806 -8.6202,8.1104 -18.783,14.0476 -29.9961,17.7715 -34.6118,11.4946 -74.5933,-0.6608 -95.8677,-30.6521 -28.729,-40.5005 -16.3254,-105.033 31.8677,-125"
     id="path7143"
     transform="translate(-674.66214,-640.14069)" />
  <path
     style="fill:#4d2a54;stroke:none;fill-opacity:1"
     d="m 880,1041 c -11.15173,20.1876 -26.17926,38.8141 -38.99902,58 -3.94715,5.9072 -12.81086,15.2039 -9.84027,22.9482 3.51861,9.1731 15.18286,6.6656 22.83929,7.3007 22.83154,1.8938 46.08923,0.7511 69,0.7511 -2.3692,46.2039 -56.8866,76.9873 -99,68.692 -47.31018,-9.319 -77.51324,-57.0682 -66.30029,-103.692 3.41217,-14.1877 11.30883,-27.5183 21.41418,-37.9626 11.54071,-11.9279 26.65808,-20.5501 42.88611,-24.0989 20.29315,-4.4378 39.30682,-0.035 58,8.0615"
     id="path7142"
     transform="translate(-674.66214,-640.14069)" />
  <path
     style="fill:#4d2a54;stroke:none;fill-opacity:1"
     d="m 938,993 41,117 c -7.42102,0 -26.12286,3.395 -31.99487,-1.4551 -2.50208,-2.0666 -2.31037,-6.6288 -2.85096,-9.5456 -1.32714,-7.1607 -3.36969,-14.2095 -5.99621,-20.9993 -6.51483,-16.8413 -17.56012,-29.4016 -30.15796,-42 v -1 l 28,-42 h 2"
     id="path7141"
     transform="translate(-674.66214,-640.14069)" />
  <path
     style="fill:#4d2a54;stroke:none;fill-opacity:1"
     d="m 1147,960 c -6.4899,15.75342 -26.0851,28.21082 -38.0089,40.0205 -22.6242,22.4076 -45.041,44.9844 -67.9911,67.0457 -10.186,9.7915 -19.7087,22.8081 -32,29.9338 1.0405,-10.3894 -1.2671,-29.3022 4.0051,-38.3334 3.6058,-6.1765 16.2206,0.5121 17.1305,-9.6949 0.5938,-6.6607 -6.9841,-8.7151 -12.1357,-8.9236 -12.7271,-0.5151 -28.66787,-2.479 -39.9999,3.9519 l -30,-84 h 199"
     id="path7140"
     transform="translate(-674.66214,-640.14069)" />
</svg>
